# xmcd CD database file
#
# Track frame offsets:
#	150
#	13715
#	28750
#	42297
#	62767
#	73477
#	93497
#	112167
#	128042
#	141302
#
# Disc length: 2210 seconds
#
# Revision: 1
# Processed by: cddbd v1.4PL0 Copyright (c) Steve Scherf et al.
# Submitted via: CDex 1.50Beta6
#
DISCID=9708a00a
DTITLE=Jared Wagner - Don't Grow Up Too Fast
DYEAR=2001
DGENRE=Country
TTITLE0=Come On Over
TTITLE1=Funny Face
TTITLE2=Hard Baby To Rock
TTITLE3=Don't Grow Up Too Fast
TTITLE4=Ain't It Just Like Love
TTITLE5=I Will Always Love You
TTITLE6=One Voice
TTITLE7=Don't Be Stupid (You Know I Love You)
TTITLE8=Leavin' On The Next Thing Smokin'
TTITLE9=In The Name Of The Lord
EXTD=YEAR: 2001
EXTT0=
EXTT1=
EXTT2=
EXTT3=
EXTT4=
EXTT5=
EXTT6=
EXTT7=
EXTT8=
EXTT9=
PLAYORDER=
